# xmcd
#
# Track frame offsets:
#	150
#	12627
#	27212
#	39938
#	53983
#	68332
#	82042
#	94450
#	108242
#	121458
#	135810
#	151574
#	164253
#	179849
#	192212
#	206033
#	219029
#	231430
#	243649
#	257480
#	270590
#	283994
#	299094
#
# Disc length: 4154 seconds
#
# Revision: 1
# Processed by: cddbd v1.5.2PL0 Copyright (c) Steve Scherf et al.
# Submitted via: audiograbber 1.83.01
#
DISCID=4e103817
DTITLE=The Greatest Country Music Recordings Of All Time  - Record 51 and 52
DYEAR=1900
DGENRE=
TTITLE0=The Carter Family - Single Girl, Married Girl
TTITLE1=The Carter Family - Wildwood Flower
TTITLE2=The Carter Family - Keep On The Sunny Side
TTITLE3=The Carter Family - My Clinch Mountain Home
TTITLE4=The Carter Family - Little Moses
TTITLE5=The Carter Family - Kitty Waltz
TTITLE6=The Carter Family - Cyclone Of Rye Cove
TTITLE7=The Carter Family - Sweet Fern
TTITLE8=The Carter Family - The Cannonball
TTITLE9=The Carter Family - Can The Circle Be Unbroken
TTITLE10=The Carter Family - Gold Watch And Chain
TTITLE11=The Carter Family - Hello Stranger
TTITLE12=Jimmie Rodgers - Blue Yodel #1 (T For Texas)
TTITLE13=Jimmie Rodgers - Waiting For A Train
TTITLE14=Jimmie Rodgers - Jimmie Rodgers Visits The Carter Family (with The Car
TTITLE14=ter Family)
TTITLE15=Jimmie Rodgers - My Carloina Sunshine Girl
TTITLE16=Jimmie Rodgers - My Good Gal's Gone Blues
TTITLE17=Jimmie Rodgers - Never No Mo' Blues
TTITLE18=Jimmie Rodgers - The Soldier's Sweetheart
TTITLE19=Jimmie Rodgers - T. B. Blues
TTITLE20=Jimmie Rodgers - Blue Yodel #8 (Muleskinner Blues)
TTITLE21=Jimmie Rodgers - Mother The Queen Of My Heart
TTITLE22=Jimmie Rodgers - Peach Pickin' Time Down In Georgia
EXTD=
EXTT0=
EXTT1=
EXTT2=
EXTT3=
EXTT4=
EXTT5=
EXTT6=
EXTT7=
EXTT8=
EXTT9=
EXTT10=
EXTT11=
EXTT12=
EXTT13=
EXTT14=
EXTT15=
EXTT16=
EXTT17=
EXTT18=
EXTT19=
EXTT20=
EXTT21=
EXTT22=
PLAYORDER=
